<svg width="1600" height="836" viewBox="0 0 1600 836" fill="none" xmlns="http://www.w3.org/2000/svg">
<g clip-path="url(#clip0_984_97)">
<rect width="1600" height="836" rx="20" fill="white"/>
<g clip-path="url(#clip1_984_97)">
<rect width="914" height="1600" transform="matrix(-4.37114e-08 -1 -1 4.37114e-08 1600 914)" fill="white"/>
<g filter="url(#filter0_f_984_97)">
<circle cx="244" cy="244" r="244" transform="matrix(-4.37114e-08 -1 -1 4.37114e-08 1624.38 1152.34)" fill="#C8F2FF"/>
</g>
<g filter="url(#filter1_f_984_97)">
<ellipse cx="185" cy="184" rx="185" ry="184" transform="matrix(-4.37114e-08 -1 -1 4.37114e-08 956.383 1114.34)" fill="#FFD5FF"/>
</g>
<g filter="url(#filter2_f_984_97)">
<ellipse cx="399.735" cy="149.445" rx="399.735" ry="149.445" transform="matrix(0.246276 -0.9692 -0.9692 -0.246276 1285.22 929.201)" fill="#696FFD"/>
</g>
<g filter="url(#filter3_f_984_97)">
<circle cx="244" cy="244" r="244" transform="matrix(-4.37114e-08 -1 -1 4.37114e-08 274.383 1152.34)" fill="#C8F2FF"/>
</g>
<g filter="url(#filter4_f_984_97)">
<ellipse cx="301.859" cy="112.853" rx="301.859" ry="112.853" transform="matrix(0.246276 -0.9692 -0.9692 -0.246276 -50.2417 910.189)" fill="#696FFD"/>
</g>
<g filter="url(#filter5_f_984_97)">
<path d="M1513.06 -290.715C1408.47 -285.719 895.967 -83.5076 664.436 -243.272C432.906 -403.037 627.682 531.978 916.308 499.186C1202.55 466.665 1617.66 -295.711 1513.06 -290.715Z" fill="url(#paint0_linear_984_97)"/>
</g>
<path d="M164.967 139.483C164.967 141.218 158.386 142.625 150.267 142.625C142.149 142.625 135.568 141.218 135.568 139.483C135.568 137.748 142.149 136.342 150.267 136.342C158.386 136.342 164.967 137.748 164.967 139.483Z" fill="#FF7D6B"/>
<path fill-rule="evenodd" clip-rule="evenodd" d="M134.466 125.841C134.466 130.912 139.136 133.186 143.702 133.2C154.385 133.2 166.204 126.625 166.143 115.622C166.098 107.689 158.818 100.936 150.204 101C142.007 101 134.001 106.36 134 113.66C134 115.621 135.123 117.518 138.06 117.731C135.611 120.159 134.466 123.068 134.466 125.841ZM150.232 118.671C151.945 118.671 153.333 117.001 153.333 114.94C153.333 112.88 151.945 111.21 150.232 111.21C148.52 111.21 147.132 112.88 147.132 114.94C147.132 117.001 148.52 118.671 150.232 118.671ZM159.122 118.671C160.835 118.671 162.223 117.001 162.223 114.94C162.223 112.88 160.835 111.21 159.122 111.21C157.41 111.21 156.022 112.88 156.022 114.94C156.022 117.001 157.41 118.671 159.122 118.671Z" fill="#FF7D6B"/>
<path d="M180.409 134.972C180.93 134.972 181.357 134.542 181.357 134.016C181.357 131.244 181.357 128.471 181.357 125.699C183.014 125.699 184.672 125.699 186.33 125.699C192.061 125.699 196.276 121.446 196.276 115.664C196.276 109.882 192.061 105.629 186.33 105.629H177.804C177.283 105.629 176.857 106.06 176.857 106.585V134.016C176.857 134.542 177.283 134.972 177.804 134.972H180.409ZM181.357 121.159C181.357 117.496 181.357 113.832 181.357 110.169C183.014 110.169 184.672 110.169 186.33 110.169C189.456 110.169 191.635 112.415 191.635 115.664C191.635 118.914 189.456 121.159 186.33 121.159C184.672 121.159 183.014 121.159 181.357 121.159Z" fill="#FF7D6B"/>
<path d="M202.416 134.972C202.937 134.972 203.363 134.542 203.363 134.016V122.548C203.363 117.483 206.726 115.572 210.468 115.572H211.415C211.936 115.572 212.362 115.142 212.362 114.616V112.036C212.362 111.51 211.936 111.08 211.415 111.08H210.468C204.783 111.08 202.82 115.03 202.82 115.03C202.82 115.03 202.82 112.567 202.82 112.036C202.82 111.282 202.393 111.08 201.872 111.08H200.048C199.527 111.08 199.1 111.51 199.1 112.036V134.016C199.1 134.542 199.527 134.972 200.048 134.972H202.416Z" fill="#FF7D6B"/>
<path d="M218.468 134.972C218.989 134.972 219.415 134.542 219.415 134.016V112.036C219.415 111.51 218.989 111.08 218.468 111.08H216.005C215.484 111.08 215.058 111.51 215.058 112.036V134.016C215.058 134.542 215.484 134.972 216.005 134.972H218.468Z" fill="#FF7D6B"/>
<path d="M234.148 134.972C234.574 134.972 234.859 134.733 235.048 134.255L243.242 112.561C243.337 112.322 243.431 112.036 243.431 111.749C243.431 111.414 243.053 111.08 242.484 111.08H239.548C239.121 111.08 238.837 111.271 238.648 111.797C236.731 117.349 232.816 128.096 232.816 128.096C232.816 128.096 228.918 117.362 226.996 111.797C226.807 111.271 226.523 111.08 226.096 111.08H223.16C222.591 111.08 222.212 111.414 222.212 111.797C222.212 112.036 222.307 112.322 222.402 112.561L230.643 134.255C230.833 134.733 231.117 134.972 231.543 134.972H234.148Z" fill="#FF7D6B"/>
<path d="M253.807 142.625C254.233 142.625 254.517 142.434 254.706 141.908L265.811 112.561C265.905 112.322 266 112.036 266 111.797C266 111.414 265.621 111.08 265.053 111.08H262.164C261.737 111.08 261.453 111.271 261.264 111.797C259.487 116.908 255.675 128.096 255.675 128.096C255.675 128.096 251.596 116.96 249.659 111.797C249.47 111.271 249.186 111.08 248.76 111.08H245.87C245.302 111.08 244.923 111.414 244.923 111.797C244.923 112.036 245.018 112.322 245.113 112.561L253.022 132.822C253.117 133.061 253.164 133.204 253.164 133.3C253.164 133.443 253.117 133.539 253.022 133.825L250.444 141.239C250.349 141.478 250.302 141.669 250.302 141.86C250.302 142.243 250.633 142.625 251.249 142.625H253.807Z" fill="#FF7D6B"/>
</g>
<path d="M135.497 549.484V546.273H154.634V549.484H146.919V571H143.2V549.484H135.497ZM163.696 571.374C161.957 571.374 160.44 570.976 159.144 570.179C157.848 569.382 156.842 568.267 156.125 566.835C155.409 565.402 155.051 563.728 155.051 561.812C155.051 559.888 155.409 558.206 156.125 556.765C156.842 555.324 157.848 554.205 159.144 553.408C160.44 552.612 161.957 552.213 163.696 552.213C165.434 552.213 166.952 552.612 168.248 553.408C169.543 554.205 170.55 555.324 171.266 556.765C171.982 558.206 172.341 559.888 172.341 561.812C172.341 563.728 171.982 565.402 171.266 566.835C170.55 568.267 169.543 569.382 168.248 570.179C166.952 570.976 165.434 571.374 163.696 571.374ZM163.708 568.344C164.835 568.344 165.768 568.046 166.509 567.45C167.249 566.855 167.797 566.062 168.151 565.072C168.513 564.082 168.694 562.991 168.694 561.8C168.694 560.616 168.513 559.53 168.151 558.54C167.797 557.542 167.249 556.741 166.509 556.137C165.768 555.533 164.835 555.232 163.708 555.232C162.573 555.232 161.631 555.533 160.882 556.137C160.142 556.741 159.591 557.542 159.228 558.54C158.874 559.53 158.697 560.616 158.697 561.8C158.697 562.991 158.874 564.082 159.228 565.072C159.591 566.062 160.142 566.855 160.882 567.45C161.631 568.046 162.573 568.344 163.708 568.344ZM184.182 571.374C182.443 571.374 180.926 570.976 179.63 570.179C178.334 569.382 177.328 568.267 176.612 566.835C175.895 565.402 175.537 563.728 175.537 561.812C175.537 559.888 175.895 558.206 176.612 556.765C177.328 555.324 178.334 554.205 179.63 553.408C180.926 552.612 182.443 552.213 184.182 552.213C185.921 552.213 187.438 552.612 188.734 553.408C190.03 554.205 191.036 555.324 191.752 556.765C192.469 558.206 192.827 559.888 192.827 561.812C192.827 563.728 192.469 565.402 191.752 566.835C191.036 568.267 190.03 569.382 188.734 570.179C187.438 570.976 185.921 571.374 184.182 571.374ZM184.194 568.344C185.321 568.344 186.255 568.046 186.995 567.45C187.736 566.855 188.283 566.062 188.637 565.072C188.999 564.082 189.181 562.991 189.181 561.8C189.181 560.616 188.999 559.53 188.637 558.54C188.283 557.542 187.736 556.741 186.995 556.137C186.255 555.533 185.321 555.232 184.194 555.232C183.059 555.232 182.117 555.533 181.369 556.137C180.628 556.741 180.077 557.542 179.715 558.54C179.36 559.53 179.183 560.616 179.183 561.8C179.183 562.991 179.36 564.082 179.715 565.072C180.077 566.062 180.628 566.855 181.369 567.45C182.117 568.046 183.059 568.344 184.194 568.344ZM205.855 571V552.455H209.32V555.473H209.549C209.936 554.451 210.567 553.654 211.445 553.082C212.322 552.503 213.373 552.213 214.596 552.213C215.836 552.213 216.874 552.503 217.711 553.082C218.556 553.662 219.18 554.459 219.583 555.473H219.776C220.218 554.483 220.923 553.694 221.889 553.107C222.855 552.511 224.006 552.213 225.342 552.213C227.024 552.213 228.396 552.74 229.459 553.795C230.53 554.849 231.065 556.439 231.065 558.564V571H227.455V558.902C227.455 557.646 227.113 556.737 226.428 556.173C225.744 555.61 224.927 555.328 223.977 555.328C222.802 555.328 221.889 555.69 221.237 556.415C220.585 557.131 220.259 558.053 220.259 559.18V571H216.661V558.673C216.661 557.666 216.347 556.857 215.719 556.246C215.091 555.634 214.274 555.328 213.268 555.328C212.584 555.328 211.952 555.509 211.372 555.871C210.801 556.226 210.338 556.721 209.984 557.357C209.638 557.992 209.465 558.729 209.465 559.566V571H205.855ZM241.3 571.411C240.125 571.411 239.063 571.193 238.113 570.759C237.163 570.316 236.411 569.676 235.855 568.839C235.308 568.002 235.034 566.975 235.034 565.76C235.034 564.714 235.235 563.852 235.638 563.176C236.04 562.5 236.584 561.965 237.268 561.57C237.952 561.176 238.717 560.878 239.562 560.677C240.407 560.476 241.268 560.323 242.146 560.218C243.256 560.089 244.158 559.985 244.85 559.904C245.542 559.816 246.045 559.675 246.359 559.482C246.673 559.288 246.83 558.974 246.83 558.54V558.455C246.83 557.401 246.532 556.584 245.937 556.004C245.349 555.425 244.472 555.135 243.305 555.135C242.089 555.135 241.131 555.405 240.431 555.944C239.739 556.475 239.26 557.067 238.994 557.719L235.602 556.946C236.004 555.819 236.592 554.91 237.364 554.217C238.145 553.517 239.043 553.01 240.057 552.696C241.071 552.374 242.138 552.213 243.256 552.213C243.997 552.213 244.782 552.302 245.611 552.479C246.448 552.648 247.229 552.962 247.953 553.42C248.686 553.879 249.285 554.535 249.752 555.388C250.219 556.234 250.452 557.332 250.452 558.685V571H246.927V568.464H246.782C246.549 568.931 246.198 569.39 245.732 569.841C245.265 570.292 244.665 570.666 243.933 570.964C243.2 571.262 242.323 571.411 241.3 571.411ZM242.085 568.513C243.083 568.513 243.937 568.316 244.645 567.921C245.361 567.527 245.905 567.012 246.275 566.376C246.653 565.732 246.842 565.044 246.842 564.311V561.92C246.714 562.049 246.464 562.17 246.094 562.283C245.732 562.387 245.317 562.48 244.85 562.56C244.383 562.633 243.929 562.701 243.486 562.766C243.043 562.822 242.673 562.87 242.375 562.911C241.675 562.999 241.035 563.148 240.455 563.357C239.884 563.567 239.425 563.868 239.079 564.263C238.741 564.649 238.572 565.164 238.572 565.808C238.572 566.702 238.902 567.378 239.562 567.837C240.222 568.287 241.063 568.513 242.085 568.513ZM258.871 559.989V571H255.261V552.455H258.726V555.473H258.955C259.382 554.491 260.05 553.702 260.96 553.107C261.877 552.511 263.032 552.213 264.425 552.213C265.689 552.213 266.795 552.479 267.745 553.01C268.695 553.533 269.432 554.314 269.955 555.352C270.478 556.391 270.74 557.674 270.74 559.204V571H267.129V559.638C267.129 558.294 266.779 557.244 266.079 556.487C265.379 555.723 264.417 555.34 263.193 555.34C262.356 555.34 261.612 555.521 260.96 555.884C260.316 556.246 259.805 556.777 259.426 557.477C259.056 558.17 258.871 559.007 258.871 559.989ZM277.199 577.955C276.66 577.955 276.169 577.91 275.726 577.822C275.283 577.741 274.953 577.653 274.736 577.556L275.605 574.598C276.265 574.775 276.853 574.852 277.368 574.827C277.883 574.803 278.338 574.61 278.732 574.248C279.135 573.886 279.489 573.294 279.795 572.473L280.242 571.241L273.456 552.455H277.32L282.017 566.847H282.21L286.906 552.455H290.782L283.139 573.475C282.785 574.441 282.334 575.258 281.787 575.926C281.24 576.602 280.588 577.109 279.831 577.447C279.075 577.786 278.197 577.955 277.199 577.955ZM303.173 577.955V552.455H306.699V555.461H307C307.21 555.075 307.511 554.628 307.906 554.121C308.3 553.614 308.848 553.171 309.548 552.793C310.248 552.406 311.174 552.213 312.325 552.213C313.822 552.213 315.158 552.591 316.333 553.348C317.509 554.105 318.43 555.195 319.098 556.62C319.775 558.045 320.113 559.759 320.113 561.763C320.113 563.768 319.779 565.486 319.11 566.919C318.442 568.344 317.525 569.442 316.358 570.215C315.19 570.98 313.858 571.362 312.361 571.362C311.234 571.362 310.313 571.173 309.596 570.795C308.888 570.416 308.333 569.974 307.93 569.467C307.528 568.96 307.218 568.509 307 568.114H306.783V577.955H303.173ZM306.711 561.727C306.711 563.031 306.9 564.174 307.278 565.156C307.656 566.138 308.204 566.907 308.92 567.462C309.636 568.01 310.514 568.283 311.552 568.283C312.631 568.283 313.532 567.998 314.257 567.426C314.981 566.847 315.529 566.062 315.899 565.072C316.277 564.082 316.466 562.967 316.466 561.727C316.466 560.504 316.281 559.405 315.911 558.431C315.549 557.457 315.001 556.688 314.269 556.125C313.544 555.562 312.639 555.28 311.552 555.28C310.506 555.28 309.62 555.549 308.896 556.089C308.18 556.628 307.636 557.381 307.266 558.347C306.896 559.312 306.711 560.439 306.711 561.727ZM332.15 571.374C330.323 571.374 328.749 570.984 327.429 570.203C326.117 569.414 325.103 568.308 324.387 566.883C323.678 565.45 323.324 563.772 323.324 561.848C323.324 559.948 323.678 558.274 324.387 556.825C325.103 555.376 326.101 554.246 327.381 553.433C328.669 552.62 330.174 552.213 331.897 552.213C332.943 552.213 333.957 552.386 334.939 552.732C335.921 553.078 336.803 553.622 337.583 554.362C338.364 555.103 338.98 556.065 339.431 557.248C339.882 558.423 340.107 559.852 340.107 561.534V562.814H325.365V560.109H336.569C336.569 559.16 336.376 558.318 335.99 557.586C335.603 556.845 335.06 556.262 334.36 555.835C333.667 555.409 332.855 555.195 331.921 555.195C330.907 555.195 330.021 555.445 329.265 555.944C328.516 556.435 327.936 557.079 327.526 557.876C327.123 558.665 326.922 559.522 326.922 560.447V562.56C326.922 563.8 327.14 564.854 327.574 565.724C328.017 566.593 328.633 567.257 329.422 567.716C330.21 568.167 331.132 568.392 332.186 568.392C332.871 568.392 333.494 568.295 334.058 568.102C334.621 567.901 335.108 567.603 335.519 567.209C335.929 566.814 336.243 566.327 336.461 565.748L339.877 566.364C339.604 567.37 339.113 568.251 338.404 569.008C337.704 569.756 336.823 570.34 335.76 570.759C334.706 571.169 333.502 571.374 332.15 571.374ZM351.924 571.374C350.186 571.374 348.668 570.976 347.372 570.179C346.076 569.382 345.07 568.267 344.354 566.835C343.637 565.402 343.279 563.728 343.279 561.812C343.279 559.888 343.637 558.206 344.354 556.765C345.07 555.324 346.076 554.205 347.372 553.408C348.668 552.612 350.186 552.213 351.924 552.213C353.663 552.213 355.18 552.612 356.476 553.408C357.772 554.205 358.778 555.324 359.494 556.765C360.211 558.206 360.569 559.888 360.569 561.812C360.569 563.728 360.211 565.402 359.494 566.835C358.778 568.267 357.772 569.382 356.476 570.179C355.18 570.976 353.663 571.374 351.924 571.374ZM351.936 568.344C353.063 568.344 353.997 568.046 354.737 567.45C355.478 566.855 356.025 566.062 356.379 565.072C356.742 564.082 356.923 562.991 356.923 561.8C356.923 560.616 356.742 559.53 356.379 558.54C356.025 557.542 355.478 556.741 354.737 556.137C353.997 555.533 353.063 555.232 351.936 555.232C350.801 555.232 349.86 555.533 349.111 556.137C348.37 556.741 347.819 557.542 347.457 558.54C347.103 559.53 346.926 560.616 346.926 561.8C346.926 562.991 347.103 564.082 347.457 565.072C347.819 566.062 348.37 566.855 349.111 567.45C349.86 568.046 350.801 568.344 351.936 568.344ZM364.599 577.955V552.455H368.124V555.461H368.426C368.635 555.075 368.937 554.628 369.332 554.121C369.726 553.614 370.273 553.171 370.974 552.793C371.674 552.406 372.6 552.213 373.751 552.213C375.248 552.213 376.584 552.591 377.759 553.348C378.934 554.105 379.856 555.195 380.524 556.62C381.2 558.045 381.538 559.759 381.538 561.763C381.538 563.768 381.204 565.486 380.536 566.919C379.868 568.344 378.951 569.442 377.783 570.215C376.616 570.98 375.284 571.362 373.787 571.362C372.66 571.362 371.738 571.173 371.022 570.795C370.314 570.416 369.758 569.974 369.356 569.467C368.953 568.96 368.643 568.509 368.426 568.114H368.209V577.955H364.599ZM368.136 561.727C368.136 563.031 368.326 564.174 368.704 565.156C369.082 566.138 369.629 566.907 370.346 567.462C371.062 568.01 371.94 568.283 372.978 568.283C374.057 568.283 374.958 567.998 375.683 567.426C376.407 566.847 376.954 566.062 377.325 565.072C377.703 564.082 377.892 562.967 377.892 561.727C377.892 560.504 377.707 559.405 377.337 558.431C376.974 557.457 376.427 556.688 375.695 556.125C374.97 555.562 374.065 555.28 372.978 555.28C371.932 555.28 371.046 555.549 370.322 556.089C369.605 556.628 369.062 557.381 368.692 558.347C368.321 559.312 368.136 560.439 368.136 561.727ZM389.193 546.273V571H385.583V546.273H389.193ZM402.043 571.374C400.216 571.374 398.642 570.984 397.322 570.203C396.01 569.414 394.996 568.308 394.279 566.883C393.571 565.45 393.217 563.772 393.217 561.848C393.217 559.948 393.571 558.274 394.279 556.825C394.996 555.376 395.994 554.246 397.274 553.433C398.561 552.62 400.067 552.213 401.789 552.213C402.836 552.213 403.85 552.386 404.832 552.732C405.814 553.078 406.695 553.622 407.476 554.362C408.257 555.103 408.873 556.065 409.323 557.248C409.774 558.423 409.999 559.852 409.999 561.534V562.814H395.257V560.109H406.462C406.462 559.16 406.269 558.318 405.882 557.586C405.496 556.845 404.953 556.262 404.252 555.835C403.56 555.409 402.747 555.195 401.813 555.195C400.799 555.195 399.914 555.445 399.157 555.944C398.409 556.435 397.829 557.079 397.419 557.876C397.016 558.665 396.815 559.522 396.815 560.447V562.56C396.815 563.8 397.032 564.854 397.467 565.724C397.91 566.593 398.525 567.257 399.314 567.716C400.103 568.167 401.025 568.392 402.079 568.392C402.763 568.392 403.387 568.295 403.95 568.102C404.514 567.901 405.001 567.603 405.411 567.209C405.822 566.814 406.136 566.327 406.353 565.748L409.77 566.364C409.496 567.37 409.005 568.251 408.297 569.008C407.597 569.756 406.715 570.34 405.653 570.759C404.598 571.169 403.395 571.374 402.043 571.374ZM428.4 571.411C427.225 571.411 426.162 571.193 425.213 570.759C424.263 570.316 423.51 569.676 422.955 568.839C422.407 568.002 422.134 566.975 422.134 565.76C422.134 564.714 422.335 563.852 422.737 563.176C423.14 562.5 423.683 561.965 424.367 561.57C425.052 561.176 425.816 560.878 426.661 560.677C427.507 560.476 428.368 560.323 429.245 560.218C430.356 560.089 431.258 559.985 431.95 559.904C432.642 559.816 433.145 559.675 433.459 559.482C433.773 559.288 433.93 558.974 433.93 558.54V558.455C433.93 557.401 433.632 556.584 433.036 556.004C432.449 555.425 431.571 555.135 430.404 555.135C429.189 555.135 428.231 555.405 427.531 555.944C426.838 556.475 426.36 557.067 426.094 557.719L422.701 556.946C423.104 555.819 423.691 554.91 424.464 554.217C425.245 553.517 426.142 553.01 427.156 552.696C428.171 552.374 429.237 552.213 430.356 552.213C431.097 552.213 431.881 552.302 432.71 552.479C433.548 552.648 434.328 552.962 435.053 553.42C435.785 553.879 436.385 554.535 436.852 555.388C437.319 556.234 437.552 557.332 437.552 558.685V571H434.026V568.464H433.882C433.648 568.931 433.298 569.39 432.831 569.841C432.364 570.292 431.765 570.666 431.032 570.964C430.3 571.262 429.422 571.411 428.4 571.411ZM429.185 568.513C430.183 568.513 431.036 568.316 431.744 567.921C432.461 567.527 433.004 567.012 433.374 566.376C433.753 565.732 433.942 565.044 433.942 564.311V561.92C433.813 562.049 433.564 562.17 433.193 562.283C432.831 562.387 432.417 562.48 431.95 562.56C431.483 562.633 431.028 562.701 430.585 562.766C430.143 562.822 429.772 562.87 429.475 562.911C428.774 562.999 428.134 563.148 427.555 563.357C426.983 563.567 426.525 563.868 426.178 564.263C425.84 564.649 425.671 565.164 425.671 565.808C425.671 566.702 426.001 567.378 426.661 567.837C427.321 568.287 428.163 568.513 429.185 568.513ZM442.36 571V552.455H445.85V555.401H446.043C446.381 554.402 446.977 553.618 447.83 553.046C448.691 552.467 449.665 552.177 450.752 552.177C450.977 552.177 451.243 552.185 451.549 552.201C451.863 552.217 452.108 552.237 452.285 552.261V555.714C452.14 555.674 451.883 555.63 451.512 555.582C451.142 555.525 450.772 555.497 450.402 555.497C449.548 555.497 448.788 555.678 448.12 556.04C447.46 556.395 446.936 556.89 446.55 557.526C446.164 558.153 445.971 558.87 445.971 559.675V571H442.36ZM462.738 571.374C460.911 571.374 459.337 570.984 458.017 570.203C456.705 569.414 455.691 568.308 454.975 566.883C454.266 565.45 453.912 563.772 453.912 561.848C453.912 559.948 454.266 558.274 454.975 556.825C455.691 555.376 456.689 554.246 457.969 553.433C459.257 552.62 460.762 552.213 462.485 552.213C463.531 552.213 464.545 552.386 465.527 552.732C466.509 553.078 467.391 553.622 468.171 554.362C468.952 555.103 469.568 556.065 470.019 557.248C470.469 558.423 470.695 559.852 470.695 561.534V562.814H455.953V560.109H467.157C467.157 559.16 466.964 558.318 466.578 557.586C466.191 556.845 465.648 556.262 464.948 555.835C464.255 555.409 463.442 555.195 462.509 555.195C461.494 555.195 460.609 555.445 459.852 555.944C459.104 556.435 458.524 557.079 458.114 557.876C457.711 558.665 457.51 559.522 457.51 560.447V562.56C457.51 563.8 457.727 564.854 458.162 565.724C458.605 566.593 459.221 567.257 460.009 567.716C460.798 568.167 461.72 568.392 462.774 568.392C463.459 568.392 464.082 568.295 464.646 568.102C465.209 567.901 465.696 567.603 466.107 567.209C466.517 566.814 466.831 566.327 467.048 565.748L470.465 566.364C470.192 567.37 469.701 568.251 468.992 569.008C468.292 569.756 467.411 570.34 466.348 570.759C465.294 571.169 464.09 571.374 462.738 571.374ZM483.698 571V552.455H487.164V555.473H487.393C487.779 554.451 488.411 553.654 489.289 553.082C490.166 552.503 491.216 552.213 492.44 552.213C493.679 552.213 494.718 552.503 495.555 553.082C496.4 553.662 497.024 554.459 497.426 555.473H497.619C498.062 554.483 498.767 553.694 499.732 553.107C500.698 552.511 501.849 552.213 503.186 552.213C504.868 552.213 506.24 552.74 507.303 553.795C508.373 554.849 508.909 556.439 508.909 558.564V571H505.298V558.902C505.298 557.646 504.956 556.737 504.272 556.173C503.588 555.61 502.771 555.328 501.821 555.328C500.646 555.328 499.732 555.69 499.08 556.415C498.428 557.131 498.102 558.053 498.102 559.18V571H494.504V558.673C494.504 557.666 494.191 556.857 493.563 556.246C492.935 555.634 492.118 555.328 491.112 555.328C490.427 555.328 489.796 555.509 489.216 555.871C488.645 556.226 488.182 556.721 487.828 557.357C487.481 557.992 487.308 558.729 487.308 559.566V571H483.698ZM513.747 571V552.455H517.357V571H513.747ZM515.57 549.593C514.942 549.593 514.403 549.384 513.952 548.965C513.51 548.539 513.288 548.031 513.288 547.444C513.288 546.848 513.51 546.341 513.952 545.923C514.403 545.496 514.942 545.283 515.57 545.283C516.198 545.283 516.733 545.496 517.176 545.923C517.627 546.341 517.852 546.848 517.852 547.444C517.852 548.031 517.627 548.539 517.176 548.965C516.733 549.384 516.198 549.593 515.57 549.593ZM525.824 559.989V571H522.214V552.455H525.679V555.473H525.909C526.335 554.491 527.003 553.702 527.913 553.107C528.83 552.511 529.985 552.213 531.378 552.213C532.642 552.213 533.749 552.479 534.698 553.01C535.648 553.533 536.385 554.314 536.908 555.352C537.431 556.391 537.693 557.674 537.693 559.204V571H534.083V559.638C534.083 558.294 533.732 557.244 533.032 556.487C532.332 555.723 531.37 555.34 530.146 555.34C529.309 555.34 528.565 555.521 527.913 555.884C527.269 556.246 526.758 556.777 526.379 557.477C526.009 558.17 525.824 559.007 525.824 559.989ZM551.191 552.455V555.352H541.061V552.455H551.191ZM543.778 548.011H547.388V565.555C547.388 566.255 547.493 566.782 547.702 567.136C547.911 567.482 548.181 567.72 548.511 567.849C548.849 567.969 549.215 568.03 549.61 568.03C549.899 568.03 550.153 568.01 550.37 567.969C550.588 567.929 550.757 567.897 550.877 567.873L551.529 570.855C551.32 570.936 551.022 571.016 550.636 571.097C550.249 571.185 549.767 571.233 549.187 571.241C548.237 571.258 547.352 571.089 546.531 570.734C545.71 570.38 545.046 569.833 544.539 569.092C544.031 568.352 543.778 567.422 543.778 566.303V548.011ZM555.185 571V552.455H558.795V571H555.185ZM557.008 549.593C556.38 549.593 555.841 549.384 555.39 548.965C554.947 548.539 554.726 548.031 554.726 547.444C554.726 546.848 554.947 546.341 555.39 545.923C555.841 545.496 556.38 545.283 557.008 545.283C557.636 545.283 558.171 545.496 558.614 545.923C559.064 546.341 559.29 546.848 559.29 547.444C559.29 548.031 559.064 548.539 558.614 548.965C558.171 549.384 557.636 549.593 557.008 549.593ZM567.262 559.989V571H563.651V552.455H567.117V555.473H567.346C567.773 554.491 568.441 553.702 569.35 553.107C570.268 552.511 571.423 552.213 572.816 552.213C574.079 552.213 575.186 552.479 576.136 553.01C577.086 553.533 577.822 554.314 578.345 555.352C578.869 556.391 579.13 557.674 579.13 559.204V571H575.52V559.638C575.52 558.294 575.17 557.244 574.47 556.487C573.769 555.723 572.807 555.34 571.584 555.34C570.747 555.34 570.002 555.521 569.35 555.884C568.706 556.246 568.195 556.777 567.817 557.477C567.447 558.17 567.262 559.007 567.262 559.989ZM591.747 578.341C590.274 578.341 589.007 578.148 587.944 577.761C586.89 577.375 586.028 576.864 585.36 576.228C584.692 575.592 584.193 574.896 583.863 574.139L586.966 572.859C587.183 573.214 587.473 573.588 587.835 573.982C588.206 574.385 588.705 574.727 589.333 575.009C589.968 575.29 590.785 575.431 591.784 575.431C593.152 575.431 594.283 575.097 595.176 574.429C596.07 573.769 596.517 572.714 596.517 571.266V567.619H596.287C596.07 568.014 595.756 568.452 595.345 568.935C594.943 569.418 594.387 569.837 593.679 570.191C592.971 570.545 592.049 570.722 590.914 570.722C589.449 570.722 588.129 570.38 586.954 569.696C585.787 569.004 584.861 567.986 584.177 566.641C583.501 565.289 583.163 563.627 583.163 561.655C583.163 559.683 583.497 557.992 584.165 556.584C584.841 555.175 585.767 554.097 586.942 553.348C588.117 552.591 589.449 552.213 590.938 552.213C592.089 552.213 593.019 552.406 593.727 552.793C594.436 553.171 594.987 553.614 595.382 554.121C595.784 554.628 596.094 555.075 596.311 555.461H596.577V552.455H600.115V571.411C600.115 573.004 599.744 574.312 599.004 575.335C598.263 576.357 597.261 577.113 595.997 577.604C594.742 578.095 593.325 578.341 591.747 578.341ZM591.711 567.728C592.749 567.728 593.627 567.487 594.343 567.004C595.068 566.513 595.615 565.812 595.985 564.903C596.364 563.985 596.553 562.886 596.553 561.607C596.553 560.359 596.368 559.26 595.997 558.31C595.627 557.361 595.084 556.62 594.367 556.089C593.651 555.549 592.766 555.28 591.711 555.28C590.624 555.28 589.719 555.562 588.994 556.125C588.27 556.68 587.723 557.437 587.352 558.395C586.99 559.353 586.809 560.423 586.809 561.607C586.809 562.822 586.994 563.888 587.365 564.806C587.735 565.724 588.282 566.44 589.007 566.955C589.739 567.47 590.641 567.728 591.711 567.728ZM619.351 571.411C618.176 571.411 617.114 571.193 616.164 570.759C615.214 570.316 614.461 569.676 613.906 568.839C613.359 568.002 613.085 566.975 613.085 565.76C613.085 564.714 613.286 563.852 613.689 563.176C614.091 562.5 614.634 561.965 615.319 561.57C616.003 561.176 616.767 560.878 617.613 560.677C618.458 560.476 619.319 560.323 620.196 560.218C621.307 560.089 622.209 559.985 622.901 559.904C623.593 559.816 624.096 559.675 624.41 559.482C624.724 559.288 624.881 558.974 624.881 558.54V558.455C624.881 557.401 624.583 556.584 623.988 556.004C623.4 555.425 622.523 555.135 621.355 555.135C620.14 555.135 619.182 555.405 618.482 555.944C617.79 556.475 617.311 557.067 617.045 557.719L613.652 556.946C614.055 555.819 614.642 554.91 615.415 554.217C616.196 553.517 617.093 553.01 618.108 552.696C619.122 552.374 620.188 552.213 621.307 552.213C622.048 552.213 622.833 552.302 623.662 552.479C624.499 552.648 625.279 552.962 626.004 553.42C626.736 553.879 627.336 554.535 627.803 555.388C628.27 556.234 628.503 557.332 628.503 558.685V571H624.978V568.464H624.833C624.599 568.931 624.249 569.39 623.782 569.841C623.315 570.292 622.716 570.666 621.983 570.964C621.251 571.262 620.373 571.411 619.351 571.411ZM620.136 568.513C621.134 568.513 621.987 568.316 622.696 567.921C623.412 567.527 623.955 567.012 624.326 566.376C624.704 565.732 624.893 565.044 624.893 564.311V561.92C624.764 562.049 624.515 562.17 624.145 562.283C623.782 562.387 623.368 562.48 622.901 562.56C622.434 562.633 621.979 562.701 621.537 562.766C621.094 562.822 620.724 562.87 620.426 562.911C619.725 562.999 619.086 563.148 618.506 563.357C617.935 563.567 617.476 563.868 617.13 564.263C616.792 564.649 616.623 565.164 616.623 565.808C616.623 566.702 616.953 567.378 617.613 567.837C618.273 568.287 619.114 568.513 620.136 568.513ZM641.969 552.455V555.352H631.839V552.455H641.969ZM634.555 548.011H638.165V565.555C638.165 566.255 638.27 566.782 638.479 567.136C638.689 567.482 638.958 567.72 639.288 567.849C639.626 567.969 639.992 568.03 640.387 568.03C640.677 568.03 640.93 568.01 641.148 567.969C641.365 567.929 641.534 567.897 641.655 567.873L642.307 570.855C642.097 570.936 641.8 571.016 641.413 571.097C641.027 571.185 640.544 571.233 639.964 571.241C639.015 571.258 638.129 571.089 637.308 570.734C636.487 570.38 635.823 569.833 635.316 569.092C634.809 568.352 634.555 567.422 634.555 566.303V548.011ZM663.617 552.455V555.352H653.487V552.455H663.617ZM656.204 548.011H659.814V565.555C659.814 566.255 659.918 566.782 660.128 567.136C660.337 567.482 660.607 567.72 660.937 567.849C661.275 567.969 661.641 568.03 662.035 568.03C662.325 568.03 662.579 568.01 662.796 567.969C663.013 567.929 663.182 567.897 663.303 567.873L663.955 570.855C663.746 570.936 663.448 571.016 663.062 571.097C662.675 571.185 662.192 571.233 661.613 571.241C660.663 571.258 659.778 571.089 658.956 570.734C658.135 570.38 657.471 569.833 656.964 569.092C656.457 568.352 656.204 567.422 656.204 566.303V548.011ZM671.619 559.989V571H668.009V546.273H671.571V555.473H671.8C672.235 554.475 672.899 553.682 673.792 553.094C674.686 552.507 675.853 552.213 677.294 552.213C678.565 552.213 679.676 552.475 680.626 552.998C681.584 553.521 682.324 554.302 682.848 555.34C683.379 556.371 683.645 557.658 683.645 559.204V571H680.034V559.638C680.034 558.278 679.684 557.224 678.984 556.475C678.284 555.719 677.31 555.34 676.062 555.34C675.209 555.34 674.444 555.521 673.768 555.884C673.1 556.246 672.573 556.777 672.186 557.477C671.808 558.17 671.619 559.007 671.619 559.989ZM696.455 571.374C694.628 571.374 693.054 570.984 691.734 570.203C690.422 569.414 689.408 568.308 688.691 566.883C687.983 565.45 687.629 563.772 687.629 561.848C687.629 559.948 687.983 558.274 688.691 556.825C689.408 555.376 690.406 554.246 691.686 553.433C692.974 552.62 694.479 552.213 696.201 552.213C697.248 552.213 698.262 552.386 699.244 552.732C700.226 553.078 701.107 553.622 701.888 554.362C702.669 555.103 703.285 556.065 703.735 557.248C704.186 558.423 704.412 559.852 704.412 561.534V562.814H689.669V560.109H700.874C700.874 559.16 700.681 558.318 700.294 557.586C699.908 556.845 699.365 556.262 698.664 555.835C697.972 555.409 697.159 555.195 696.225 555.195C695.211 555.195 694.326 555.445 693.569 555.944C692.821 556.435 692.241 557.079 691.831 557.876C691.428 558.665 691.227 559.522 691.227 560.447V562.56C691.227 563.8 691.444 564.854 691.879 565.724C692.322 566.593 692.937 567.257 693.726 567.716C694.515 568.167 695.437 568.392 696.491 568.392C697.175 568.392 697.799 568.295 698.363 568.102C698.926 567.901 699.413 567.603 699.824 567.209C700.234 566.814 700.548 566.327 700.765 565.748L704.182 566.364C703.908 567.37 703.417 568.251 702.709 569.008C702.009 569.756 701.127 570.34 700.065 570.759C699.011 571.169 697.807 571.374 696.455 571.374ZM731.312 556.982L728.04 557.562C727.903 557.143 727.686 556.745 727.388 556.366C727.098 555.988 726.704 555.678 726.205 555.437C725.706 555.195 725.082 555.075 724.333 555.075C723.311 555.075 722.458 555.304 721.774 555.763C721.09 556.214 720.748 556.797 720.748 557.513C720.748 558.133 720.977 558.632 721.436 559.011C721.895 559.389 722.635 559.699 723.657 559.94L726.603 560.616C728.31 561.011 729.582 561.619 730.419 562.44C731.256 563.261 731.674 564.327 731.674 565.639C731.674 566.75 731.352 567.74 730.708 568.609C730.073 569.471 729.183 570.147 728.04 570.638C726.905 571.129 725.589 571.374 724.092 571.374C722.015 571.374 720.321 570.932 719.009 570.046C717.697 569.153 716.892 567.885 716.594 566.243L720.083 565.712C720.301 566.621 720.748 567.309 721.424 567.776C722.1 568.235 722.981 568.464 724.068 568.464C725.251 568.464 726.197 568.219 726.905 567.728C727.614 567.229 727.968 566.621 727.968 565.905C727.968 565.325 727.75 564.838 727.316 564.444C726.889 564.049 726.233 563.752 725.348 563.55L722.208 562.862C720.478 562.468 719.198 561.84 718.369 560.979C717.548 560.117 717.137 559.027 717.137 557.707C717.137 556.612 717.443 555.654 718.055 554.833C718.667 554.012 719.512 553.372 720.591 552.913C721.669 552.446 722.905 552.213 724.297 552.213C726.301 552.213 727.879 552.648 729.03 553.517C730.181 554.378 730.942 555.533 731.312 556.982ZM741.041 571.411C739.865 571.411 738.803 571.193 737.853 570.759C736.903 570.316 736.151 569.676 735.595 568.839C735.048 568.002 734.774 566.975 734.774 565.76C734.774 564.714 734.976 563.852 735.378 563.176C735.78 562.5 736.324 561.965 737.008 561.57C737.692 561.176 738.457 560.878 739.302 560.677C740.147 560.476 741.008 560.323 741.886 560.218C742.997 560.089 743.898 559.985 744.59 559.904C745.283 559.816 745.786 559.675 746.1 559.482C746.414 559.288 746.57 558.974 746.57 558.54V558.455C746.57 557.401 746.273 556.584 745.677 556.004C745.089 555.425 744.212 555.135 743.045 555.135C741.829 555.135 740.872 555.405 740.171 555.944C739.479 556.475 739 557.067 738.735 557.719L735.342 556.946C735.744 555.819 736.332 554.91 737.105 554.217C737.885 553.517 738.783 553.01 739.797 552.696C740.811 552.374 741.878 552.213 742.997 552.213C743.737 552.213 744.522 552.302 745.351 552.479C746.188 552.648 746.969 552.962 747.693 553.42C748.426 553.879 749.026 554.535 749.492 555.388C749.959 556.234 750.193 557.332 750.193 558.685V571H746.667V568.464H746.522C746.289 568.931 745.939 569.39 745.472 569.841C745.005 570.292 744.405 570.666 743.673 570.964C742.94 571.262 742.063 571.411 741.041 571.411ZM741.825 568.513C742.824 568.513 743.677 568.316 744.385 567.921C745.102 567.527 745.645 567.012 746.015 566.376C746.393 565.732 746.583 565.044 746.583 564.311V561.92C746.454 562.049 746.204 562.17 745.834 562.283C745.472 562.387 745.057 562.48 744.59 562.56C744.124 562.633 743.669 562.701 743.226 562.766C742.783 562.822 742.413 562.87 742.115 562.911C741.415 562.999 740.775 563.148 740.195 563.357C739.624 563.567 739.165 563.868 738.819 564.263C738.481 564.649 738.312 565.164 738.312 565.808C738.312 566.702 738.642 567.378 739.302 567.837C739.962 568.287 740.803 568.513 741.825 568.513ZM755.001 571V552.455H758.466V555.473H758.696C759.082 554.451 759.714 553.654 760.591 553.082C761.469 552.503 762.519 552.213 763.743 552.213C764.982 552.213 766.02 552.503 766.858 553.082C767.703 553.662 768.327 554.459 768.729 555.473H768.922C769.365 554.483 770.069 553.694 771.035 553.107C772.001 552.511 773.152 552.213 774.488 552.213C776.171 552.213 777.543 552.74 778.605 553.795C779.676 554.849 780.211 556.439 780.211 558.564V571H776.601V558.902C776.601 557.646 776.259 556.737 775.575 556.173C774.891 555.61 774.074 555.328 773.124 555.328C771.949 555.328 771.035 555.69 770.383 556.415C769.731 557.131 769.405 558.053 769.405 559.18V571H765.807V558.673C765.807 557.666 765.493 556.857 764.865 556.246C764.238 555.634 763.421 555.328 762.414 555.328C761.73 555.328 761.098 555.509 760.519 555.871C759.947 556.226 759.484 556.721 759.13 557.357C758.784 557.992 758.611 558.729 758.611 559.566V571H755.001ZM793.043 571.374C791.216 571.374 789.642 570.984 788.322 570.203C787.01 569.414 785.996 568.308 785.279 566.883C784.571 565.45 784.217 563.772 784.217 561.848C784.217 559.948 784.571 558.274 785.279 556.825C785.996 555.376 786.994 554.246 788.274 553.433C789.561 552.62 791.067 552.213 792.789 552.213C793.836 552.213 794.85 552.386 795.832 552.732C796.814 553.078 797.695 553.622 798.476 554.362C799.257 555.103 799.873 556.065 800.323 557.248C800.774 558.423 800.999 559.852 800.999 561.534V562.814H786.257V560.109H797.462C797.462 559.16 797.269 558.318 796.882 557.586C796.496 556.845 795.953 556.262 795.252 555.835C794.56 555.409 793.747 555.195 792.813 555.195C791.799 555.195 790.914 555.445 790.157 555.944C789.409 556.435 788.829 557.079 788.419 557.876C788.016 558.665 787.815 559.522 787.815 560.447V562.56C787.815 563.8 788.032 564.854 788.467 565.724C788.91 566.593 789.525 567.257 790.314 567.716C791.103 568.167 792.025 568.392 793.079 568.392C793.763 568.392 794.387 568.295 794.95 568.102C795.514 567.901 796.001 567.603 796.411 567.209C796.822 566.814 797.136 566.327 797.353 565.748L800.77 566.364C800.496 567.37 800.005 568.251 799.297 569.008C798.597 569.756 797.715 570.34 796.653 570.759C795.598 571.169 794.395 571.374 793.043 571.374ZM822.66 552.455V555.352H812.53V552.455H822.66ZM815.247 548.011H818.857V565.555C818.857 566.255 818.961 566.782 819.171 567.136C819.38 567.482 819.65 567.72 819.98 567.849C820.318 567.969 820.684 568.03 821.078 568.03C821.368 568.03 821.622 568.01 821.839 567.969C822.056 567.929 822.225 567.897 822.346 567.873L822.998 570.855C822.789 570.936 822.491 571.016 822.105 571.097C821.718 571.185 821.235 571.233 820.656 571.241C819.706 571.258 818.82 571.089 817.999 570.734C817.178 570.38 816.514 569.833 816.007 569.092C815.5 568.352 815.247 567.422 815.247 566.303V548.011ZM826.653 571V552.455H830.263V571H826.653ZM828.477 549.593C827.849 549.593 827.309 549.384 826.859 548.965C826.416 548.539 826.195 548.031 826.195 547.444C826.195 546.848 826.416 546.341 826.859 545.923C827.309 545.496 827.849 545.283 828.477 545.283C829.104 545.283 829.64 545.496 830.082 545.923C830.533 546.341 830.759 546.848 830.759 547.444C830.759 548.031 830.533 548.539 830.082 548.965C829.64 549.384 829.104 549.593 828.477 549.593ZM835.12 571V552.455H838.585V555.473H838.815C839.201 554.451 839.833 553.654 840.71 553.082C841.588 552.503 842.638 552.213 843.862 552.213C845.101 552.213 846.14 552.503 846.977 553.082C847.822 553.662 848.446 554.459 848.848 555.473H849.041C849.484 554.483 850.188 553.694 851.154 553.107C852.12 552.511 853.271 552.213 854.607 552.213C856.29 552.213 857.662 552.74 858.725 553.795C859.795 554.849 860.33 556.439 860.33 558.564V571H856.72V558.902C856.72 557.646 856.378 556.737 855.694 556.173C855.01 555.61 854.193 555.328 853.243 555.328C852.068 555.328 851.154 555.69 850.502 556.415C849.85 557.131 849.524 558.053 849.524 559.18V571H845.926V558.673C845.926 557.666 845.612 556.857 844.985 556.246C844.357 555.634 843.54 555.328 842.534 555.328C841.849 555.328 841.218 555.509 840.638 555.871C840.066 556.226 839.604 556.721 839.249 557.357C838.903 557.992 838.73 558.729 838.73 559.566V571H835.12ZM873.162 571.374C871.335 571.374 869.761 570.984 868.441 570.203C867.129 569.414 866.115 568.308 865.398 566.883C864.69 565.45 864.336 563.772 864.336 561.848C864.336 559.948 864.69 558.274 865.398 556.825C866.115 555.376 867.113 554.246 868.393 553.433C869.681 552.62 871.186 552.213 872.908 552.213C873.955 552.213 874.969 552.386 875.951 552.732C876.933 553.078 877.814 553.622 878.595 554.362C879.376 555.103 879.992 556.065 880.442 557.248C880.893 558.423 881.119 559.852 881.119 561.534V562.814H866.376V560.109H877.581C877.581 559.16 877.388 558.318 877.001 557.586C876.615 556.845 876.072 556.262 875.371 555.835C874.679 555.409 873.866 555.195 872.933 555.195C871.918 555.195 871.033 555.445 870.276 555.944C869.528 556.435 868.948 557.079 868.538 557.876C868.135 558.665 867.934 559.522 867.934 560.447V562.56C867.934 563.8 868.151 564.854 868.586 565.724C869.029 566.593 869.644 567.257 870.433 567.716C871.222 568.167 872.144 568.392 873.198 568.392C873.882 568.392 874.506 568.295 875.07 568.102C875.633 567.901 876.12 567.603 876.531 567.209C876.941 566.814 877.255 566.327 877.472 565.748L880.889 566.364C880.616 567.37 880.125 568.251 879.416 569.008C878.716 569.756 877.835 570.34 876.772 570.759C875.718 571.169 874.514 571.374 873.162 571.374ZM887.503 571.229C886.843 571.229 886.275 570.996 885.8 570.529C885.325 570.054 885.088 569.483 885.088 568.815C885.088 568.155 885.325 567.591 885.8 567.124C886.275 566.649 886.843 566.412 887.503 566.412C888.163 566.412 888.73 566.649 889.205 567.124C889.68 567.591 889.917 568.155 889.917 568.815C889.917 569.257 889.805 569.664 889.579 570.034C889.362 570.396 889.072 570.686 888.71 570.903C888.348 571.121 887.945 571.229 887.503 571.229ZM902.423 549.484V546.273H921.56V549.484H913.845V571H910.126V549.484H902.423ZM923.573 571V552.455H927.063V555.401H927.256C927.594 554.402 928.19 553.618 929.043 553.046C929.904 552.467 930.878 552.177 931.965 552.177C932.19 552.177 932.456 552.185 932.762 552.201C933.075 552.217 933.321 552.237 933.498 552.261V555.714C933.353 555.674 933.096 555.63 932.725 555.582C932.355 555.525 931.985 555.497 931.615 555.497C930.761 555.497 930.001 555.678 929.333 556.04C928.673 556.395 928.149 556.89 927.763 557.526C927.377 558.153 927.183 558.87 927.183 559.675V571H923.573ZM939.469 577.955C938.929 577.955 938.438 577.91 937.996 577.822C937.553 577.741 937.223 577.653 937.006 577.556L937.875 574.598C938.535 574.775 939.122 574.852 939.638 574.827C940.153 574.803 940.608 574.61 941.002 574.248C941.404 573.886 941.759 573.294 942.064 572.473L942.511 571.241L935.726 552.455H939.589L944.286 566.847H944.479L949.176 552.455H953.052L945.409 573.475C945.055 574.441 944.604 575.258 944.057 575.926C943.509 576.602 942.857 577.109 942.101 577.447C941.344 577.786 940.467 577.955 939.469 577.955ZM970.839 571.411C969.664 571.411 968.602 571.193 967.652 570.759C966.702 570.316 965.95 569.676 965.394 568.839C964.847 568.002 964.573 566.975 964.573 565.76C964.573 564.714 964.774 563.852 965.177 563.176C965.579 562.5 966.123 561.965 966.807 561.57C967.491 561.176 968.256 560.878 969.101 560.677C969.946 560.476 970.807 560.323 971.685 560.218C972.795 560.089 973.697 559.985 974.389 559.904C975.081 559.816 975.585 559.675 975.898 559.482C976.212 559.288 976.369 558.974 976.369 558.54V558.455C976.369 557.401 976.071 556.584 975.476 556.004C974.888 555.425 974.011 555.135 972.844 555.135C971.628 555.135 970.67 555.405 969.97 555.944C969.278 556.475 968.799 557.067 968.533 557.719L965.141 556.946C965.543 555.819 966.131 554.91 966.903 554.217C967.684 553.517 968.582 553.01 969.596 552.696C970.61 552.374 971.677 552.213 972.795 552.213C973.536 552.213 974.321 552.302 975.15 552.479C975.987 552.648 976.768 552.962 977.492 553.42C978.225 553.879 978.824 554.535 979.291 555.388C979.758 556.234 979.991 557.332 979.991 558.685V571H976.466V568.464H976.321C976.088 568.931 975.737 569.39 975.271 569.841C974.804 570.292 974.204 570.666 973.472 570.964C972.739 571.262 971.862 571.411 970.839 571.411ZM971.624 568.513C972.622 568.513 973.476 568.316 974.184 567.921C974.9 567.527 975.444 567.012 975.814 566.376C976.192 565.732 976.381 565.044 976.381 564.311V561.92C976.253 562.049 976.003 562.17 975.633 562.283C975.271 562.387 974.856 562.48 974.389 562.56C973.922 562.633 973.468 562.701 973.025 562.766C972.582 562.822 972.212 562.87 971.914 562.911C971.214 562.999 970.574 563.148 969.994 563.357C969.423 563.567 968.964 563.868 968.618 564.263C968.28 564.649 968.111 565.164 968.111 565.808C968.111 566.702 968.441 567.378 969.101 567.837C969.761 568.287 970.602 568.513 971.624 568.513ZM992.575 578.341C991.102 578.341 989.835 578.148 988.772 577.761C987.718 577.375 986.856 576.864 986.188 576.228C985.52 575.592 985.021 574.896 984.691 574.139L987.794 572.859C988.012 573.214 988.301 573.588 988.664 573.982C989.034 574.385 989.533 574.727 990.161 575.009C990.797 575.29 991.614 575.431 992.612 575.431C993.98 575.431 995.111 575.097 996.004 574.429C996.898 573.769 997.345 572.714 997.345 571.266V567.619H997.115C996.898 568.014 996.584 568.452 996.173 568.935C995.771 569.418 995.216 569.837 994.507 570.191C993.799 570.545 992.877 570.722 991.742 570.722C990.277 570.722 988.957 570.38 987.782 569.696C986.615 569.004 985.689 567.986 985.005 566.641C984.329 565.289 983.991 563.627 983.991 561.655C983.991 559.683 984.325 557.992 984.993 556.584C985.669 555.175 986.595 554.097 987.77 553.348C988.945 552.591 990.277 552.213 991.767 552.213C992.918 552.213 993.847 552.406 994.556 552.793C995.264 553.171 995.815 553.614 996.21 554.121C996.612 554.628 996.922 555.075 997.139 555.461H997.405V552.455H1000.94V571.411C1000.94 573.004 1000.57 574.312 999.832 575.335C999.091 576.357 998.089 577.113 996.825 577.604C995.57 578.095 994.153 578.341 992.575 578.341ZM992.539 567.728C993.578 567.728 994.455 567.487 995.171 567.004C995.896 566.513 996.443 565.812 996.813 564.903C997.192 563.985 997.381 562.886 997.381 561.607C997.381 560.359 997.196 559.26 996.825 558.31C996.455 557.361 995.912 556.62 995.195 556.089C994.479 555.549 993.594 555.28 992.539 555.28C991.453 555.28 990.547 555.562 989.823 556.125C989.098 556.68 988.551 557.437 988.181 558.395C987.818 559.353 987.637 560.423 987.637 561.607C987.637 562.822 987.822 563.888 988.193 564.806C988.563 565.724 989.11 566.44 989.835 566.955C990.567 567.47 991.469 567.728 992.539 567.728ZM1011.18 571.411C1010.01 571.411 1008.94 571.193 1007.99 570.759C1007.04 570.316 1006.29 569.676 1005.74 568.839C1005.19 568.002 1004.91 566.975 1004.91 565.76C1004.91 564.714 1005.12 563.852 1005.52 563.176C1005.92 562.5 1006.46 561.965 1007.15 561.57C1007.83 561.176 1008.6 560.878 1009.44 560.677C1010.29 560.476 1011.15 560.323 1012.03 560.218C1013.14 560.089 1014.04 559.985 1014.73 559.904C1015.42 559.816 1015.93 559.675 1016.24 559.482C1016.55 559.288 1016.71 558.974 1016.71 558.54V558.455C1016.71 557.401 1016.41 556.584 1015.82 556.004C1015.23 555.425 1014.35 555.135 1013.19 555.135C1011.97 555.135 1011.01 555.405 1010.31 555.944C1009.62 556.475 1009.14 557.067 1008.88 557.719L1005.48 556.946C1005.88 555.819 1006.47 554.91 1007.25 554.217C1008.03 553.517 1008.92 553.01 1009.94 552.696C1010.95 552.374 1012.02 552.213 1013.14 552.213C1013.88 552.213 1014.66 552.302 1015.49 552.479C1016.33 552.648 1017.11 552.962 1017.83 553.42C1018.57 553.879 1019.17 554.535 1019.63 555.388C1020.1 556.234 1020.33 557.332 1020.33 558.685V571H1016.81V568.464H1016.66C1016.43 568.931 1016.08 569.39 1015.61 569.841C1015.15 570.292 1014.55 570.666 1013.81 570.964C1013.08 571.262 1012.2 571.411 1011.18 571.411ZM1011.97 568.513C1012.96 568.513 1013.82 568.316 1014.53 567.921C1015.24 567.527 1015.79 567.012 1016.16 566.376C1016.53 565.732 1016.72 565.044 1016.72 564.311V561.92C1016.59 562.049 1016.34 562.17 1015.97 562.283C1015.61 562.387 1015.2 562.48 1014.73 562.56C1014.26 562.633 1013.81 562.701 1013.37 562.766C1012.92 562.822 1012.55 562.87 1012.26 562.911C1011.56 562.999 1010.92 563.148 1010.34 563.357C1009.76 563.567 1009.31 563.868 1008.96 564.263C1008.62 564.649 1008.45 565.164 1008.45 565.808C1008.45 566.702 1008.78 567.378 1009.44 567.837C1010.1 568.287 1010.94 568.513 1011.97 568.513ZM1025.14 571V552.455H1028.75V571H1025.14ZM1026.96 549.593C1026.34 549.593 1025.8 549.384 1025.35 548.965C1024.9 548.539 1024.68 548.031 1024.68 547.444C1024.68 546.848 1024.9 546.341 1025.35 545.923C1025.8 545.496 1026.34 545.283 1026.96 545.283C1027.59 545.283 1028.13 545.496 1028.57 545.923C1029.02 546.341 1029.25 546.848 1029.25 547.444C1029.25 548.031 1029.02 548.539 1028.57 548.965C1028.13 549.384 1027.59 549.593 1026.96 549.593ZM1037.22 559.989V571H1033.61V552.455H1037.07V555.473H1037.3C1037.73 554.491 1038.4 553.702 1039.31 553.107C1040.22 552.511 1041.38 552.213 1042.77 552.213C1044.04 552.213 1045.14 552.479 1046.09 553.01C1047.04 553.533 1047.78 554.314 1048.3 555.352C1048.83 556.391 1049.09 557.674 1049.09 559.204V571H1045.48V559.638C1045.48 558.294 1045.13 557.244 1044.43 556.487C1043.73 555.723 1042.76 555.34 1041.54 555.34C1040.7 555.34 1039.96 555.521 1039.31 555.884C1038.66 556.246 1038.15 556.777 1037.77 557.477C1037.4 558.17 1037.22 559.007 1037.22 559.989ZM1062.93 571V552.455H1066.54V571H1062.93ZM1064.75 549.593C1064.12 549.593 1063.58 549.384 1063.13 548.965C1062.69 548.539 1062.47 548.031 1062.47 547.444C1062.47 546.848 1062.69 546.341 1063.13 545.923C1063.58 545.496 1064.12 545.283 1064.75 545.283C1065.38 545.283 1065.91 545.496 1066.36 545.923C1066.81 546.341 1067.03 546.848 1067.03 547.444C1067.03 548.031 1066.81 548.539 1066.36 548.965C1065.91 549.384 1065.38 549.593 1064.75 549.593ZM1075 559.989V571H1071.39V552.455H1074.86V555.473H1075.09C1075.51 554.491 1076.18 553.702 1077.09 553.107C1078.01 552.511 1079.17 552.213 1080.56 552.213C1081.82 552.213 1082.93 552.479 1083.88 553.01C1084.83 553.533 1085.56 554.314 1086.09 555.352C1086.61 556.391 1086.87 557.674 1086.87 559.204V571H1083.26V559.638C1083.26 558.294 1082.91 557.244 1082.21 556.487C1081.51 555.723 1080.55 555.34 1079.33 555.34C1078.49 555.34 1077.74 555.521 1077.09 555.884C1076.45 556.246 1075.94 556.777 1075.56 557.477C1075.19 558.17 1075 559.007 1075 559.989ZM141.824 619.411C140.649 619.411 139.586 619.193 138.636 618.759C137.687 618.316 136.934 617.676 136.379 616.839C135.831 616.002 135.558 614.975 135.558 613.76C135.558 612.714 135.759 611.852 136.161 611.176C136.564 610.5 137.107 609.965 137.791 609.57C138.475 609.176 139.24 608.878 140.085 608.677C140.93 608.476 141.792 608.323 142.669 608.218C143.78 608.089 144.681 607.985 145.374 607.904C146.066 607.816 146.569 607.675 146.883 607.482C147.197 607.288 147.354 606.974 147.354 606.54V606.455C147.354 605.401 147.056 604.584 146.46 604.004C145.873 603.425 144.995 603.135 143.828 603.135C142.613 603.135 141.655 603.405 140.955 603.944C140.262 604.475 139.783 605.067 139.518 605.719L136.125 604.946C136.527 603.819 137.115 602.91 137.888 602.217C138.669 601.517 139.566 601.01 140.58 600.696C141.594 600.374 142.661 600.213 143.78 600.213C144.52 600.213 145.305 600.302 146.134 600.479C146.971 600.648 147.752 600.962 148.477 601.42C149.209 601.879 149.809 602.535 150.276 603.388C150.742 604.234 150.976 605.332 150.976 606.685V619H147.45V616.464H147.305C147.072 616.931 146.722 617.39 146.255 617.841C145.788 618.292 145.188 618.666 144.456 618.964C143.723 619.262 142.846 619.411 141.824 619.411ZM142.609 616.513C143.607 616.513 144.46 616.316 145.168 615.921C145.885 615.527 146.428 615.012 146.798 614.376C147.177 613.732 147.366 613.044 147.366 612.311V609.92C147.237 610.049 146.987 610.17 146.617 610.283C146.255 610.387 145.84 610.48 145.374 610.56C144.907 610.633 144.452 610.701 144.009 610.766C143.567 610.822 143.196 610.87 142.898 610.911C142.198 610.999 141.558 611.148 140.979 611.357C140.407 611.567 139.948 611.868 139.602 612.263C139.264 612.649 139.095 613.164 139.095 613.808C139.095 614.702 139.425 615.378 140.085 615.837C140.745 616.287 141.586 616.513 142.609 616.513ZM173.608 600.455V603.352H163.128V600.455H173.608ZM166.002 619V598.305C166.002 597.146 166.255 596.184 166.762 595.42C167.27 594.647 167.942 594.071 168.779 593.693C169.616 593.307 170.525 593.114 171.507 593.114C172.232 593.114 172.852 593.174 173.367 593.295C173.882 593.407 174.264 593.512 174.514 593.609L173.669 596.531C173.5 596.482 173.282 596.426 173.017 596.362C172.751 596.289 172.429 596.253 172.051 596.253C171.173 596.253 170.546 596.47 170.167 596.905C169.797 597.339 169.612 597.967 169.612 598.788V619H166.002ZM184.596 619.374C182.768 619.374 181.195 618.984 179.875 618.203C178.563 617.414 177.548 616.308 176.832 614.883C176.124 613.45 175.77 611.772 175.77 609.848C175.77 607.948 176.124 606.274 176.832 604.825C177.548 603.376 178.547 602.246 179.826 601.433C181.114 600.62 182.619 600.213 184.342 600.213C185.388 600.213 186.403 600.386 187.385 600.732C188.367 601.078 189.248 601.622 190.029 602.362C190.81 603.103 191.425 604.065 191.876 605.248C192.327 606.423 192.552 607.852 192.552 609.534V610.814H177.81V608.109H189.015C189.015 607.16 188.821 606.318 188.435 605.586C188.049 604.845 187.505 604.262 186.805 603.835C186.113 603.409 185.3 603.195 184.366 603.195C183.352 603.195 182.467 603.445 181.71 603.944C180.961 604.435 180.382 605.079 179.971 605.876C179.569 606.665 179.368 607.522 179.368 608.447V610.56C179.368 611.8 179.585 612.854 180.02 613.724C180.462 614.593 181.078 615.257 181.867 615.716C182.656 616.167 183.577 616.392 184.632 616.392C185.316 616.392 185.94 616.295 186.503 616.102C187.067 615.901 187.554 615.603 187.964 615.209C188.375 614.814 188.689 614.327 188.906 613.748L192.323 614.364C192.049 615.37 191.558 616.251 190.85 617.008C190.15 617.756 189.268 618.34 188.206 618.759C187.151 619.169 185.948 619.374 184.596 619.374ZM200.545 619L195.088 600.455H198.819L202.453 614.074H202.634L206.28 600.455H210.011L213.633 614.013H213.814L217.424 600.455H221.155L215.71 619H212.027L208.26 605.61H207.983L204.216 619H200.545ZM247.476 604.982L244.204 605.562C244.067 605.143 243.85 604.745 243.552 604.366C243.262 603.988 242.868 603.678 242.369 603.437C241.87 603.195 241.246 603.075 240.498 603.075C239.475 603.075 238.622 603.304 237.938 603.763C237.254 604.214 236.912 604.797 236.912 605.513C236.912 606.133 237.141 606.632 237.6 607.011C238.059 607.389 238.799 607.699 239.821 607.94L242.767 608.616C244.474 609.011 245.746 609.619 246.583 610.44C247.42 611.261 247.838 612.327 247.838 613.639C247.838 614.75 247.516 615.74 246.873 616.609C246.237 617.471 245.347 618.147 244.204 618.638C243.069 619.129 241.753 619.374 240.256 619.374C238.179 619.374 236.485 618.932 235.173 618.046C233.861 617.153 233.056 615.885 232.758 614.243L236.248 613.712C236.465 614.621 236.912 615.309 237.588 615.776C238.264 616.235 239.145 616.464 240.232 616.464C241.415 616.464 242.361 616.219 243.069 615.728C243.778 615.229 244.132 614.621 244.132 613.905C244.132 613.325 243.914 612.838 243.48 612.444C243.053 612.049 242.397 611.752 241.512 611.55L238.373 610.862C236.642 610.468 235.362 609.84 234.533 608.979C233.712 608.117 233.301 607.027 233.301 605.707C233.301 604.612 233.607 603.654 234.219 602.833C234.831 602.012 235.676 601.372 236.755 600.913C237.833 600.446 239.069 600.213 240.461 600.213C242.466 600.213 244.043 600.648 245.194 601.517C246.345 602.378 247.106 603.533 247.476 604.982ZM259.801 619.374C257.973 619.374 256.4 618.984 255.08 618.203C253.768 617.414 252.753 616.308 252.037 614.883C251.329 613.45 250.975 611.772 250.975 609.848C250.975 607.948 251.329 606.274 252.037 604.825C252.753 603.376 253.752 602.246 255.031 601.433C256.319 600.62 257.825 600.213 259.547 600.213C260.593 600.213 261.608 600.386 262.59 600.732C263.572 601.078 264.453 601.622 265.234 602.362C266.015 603.103 266.63 604.065 267.081 605.248C267.532 606.423 267.757 607.852 267.757 609.534V610.814H253.015V608.109H264.22C264.22 607.16 264.026 606.318 263.64 605.586C263.254 604.845 262.71 604.262 262.01 603.835C261.318 603.409 260.505 603.195 259.571 603.195C258.557 603.195 257.672 603.445 256.915 603.944C256.166 604.435 255.587 605.079 255.176 605.876C254.774 606.665 254.573 607.522 254.573 608.447V610.56C254.573 611.8 254.79 612.854 255.225 613.724C255.667 614.593 256.283 615.257 257.072 615.716C257.861 616.167 258.782 616.392 259.837 616.392C260.521 616.392 261.145 616.295 261.708 616.102C262.272 615.901 262.759 615.603 263.169 615.209C263.58 614.814 263.894 614.327 264.111 613.748L267.528 614.364C267.254 615.37 266.763 616.251 266.055 617.008C265.355 617.756 264.473 618.34 263.411 618.759C262.356 619.169 261.153 619.374 259.801 619.374ZM279.575 619.374C277.78 619.374 276.234 618.968 274.938 618.155C273.65 617.334 272.66 616.203 271.968 614.762C271.276 613.321 270.93 611.671 270.93 609.812C270.93 607.928 271.284 606.266 271.992 604.825C272.701 603.376 273.699 602.246 274.987 601.433C276.274 600.62 277.792 600.213 279.538 600.213C280.947 600.213 282.203 600.475 283.305 600.998C284.408 601.513 285.298 602.237 285.974 603.171C286.658 604.105 287.064 605.196 287.193 606.443H283.68C283.487 605.574 283.044 604.825 282.352 604.197C281.667 603.57 280.75 603.256 279.599 603.256C278.593 603.256 277.711 603.521 276.955 604.053C276.206 604.576 275.622 605.324 275.204 606.298C274.785 607.264 274.576 608.407 274.576 609.727C274.576 611.08 274.781 612.247 275.192 613.229C275.602 614.211 276.182 614.971 276.93 615.511C277.687 616.05 278.576 616.32 279.599 616.32C280.283 616.32 280.903 616.195 281.458 615.945C282.022 615.688 282.492 615.321 282.871 614.847C283.257 614.372 283.527 613.8 283.68 613.132H287.193C287.064 614.331 286.674 615.402 286.022 616.344C285.37 617.286 284.497 618.026 283.402 618.565C282.315 619.105 281.04 619.374 279.575 619.374ZM298.866 619.374C297.127 619.374 295.61 618.976 294.314 618.179C293.018 617.382 292.012 616.267 291.295 614.835C290.579 613.402 290.221 611.728 290.221 609.812C290.221 607.888 290.579 606.206 291.295 604.765C292.012 603.324 293.018 602.205 294.314 601.408C295.61 600.612 297.127 600.213 298.866 600.213C300.604 600.213 302.122 600.612 303.417 601.408C304.713 602.205 305.72 603.324 306.436 604.765C307.152 606.206 307.51 607.888 307.51 609.812C307.51 611.728 307.152 613.402 306.436 614.835C305.72 616.267 304.713 617.382 303.417 618.179C302.122 618.976 300.604 619.374 298.866 619.374ZM298.878 616.344C300.005 616.344 300.938 616.046 301.679 615.45C302.419 614.855 302.967 614.062 303.321 613.072C303.683 612.082 303.864 610.991 303.864 609.8C303.864 608.616 303.683 607.53 303.321 606.54C302.967 605.542 302.419 604.741 301.679 604.137C300.938 603.533 300.005 603.232 298.878 603.232C297.743 603.232 296.801 603.533 296.052 604.137C295.312 604.741 294.76 605.542 294.398 606.54C294.044 607.53 293.867 608.616 293.867 609.8C293.867 610.991 294.044 612.082 294.398 613.072C294.76 614.062 295.312 614.855 296.052 615.45C296.801 616.046 297.743 616.344 298.878 616.344ZM315.15 607.989V619H311.54V600.455H315.005V603.473H315.235C315.661 602.491 316.329 601.702 317.239 601.107C318.157 600.511 319.312 600.213 320.704 600.213C321.968 600.213 323.075 600.479 324.025 601.01C324.974 601.533 325.711 602.314 326.234 603.352C326.757 604.391 327.019 605.674 327.019 607.204V619H323.409V607.638C323.409 606.294 323.059 605.244 322.358 604.487C321.658 603.723 320.696 603.34 319.473 603.34C318.636 603.34 317.891 603.521 317.239 603.884C316.595 604.246 316.084 604.777 315.706 605.477C315.335 606.17 315.15 607.007 315.15 607.989ZM338.803 619.362C337.306 619.362 335.97 618.98 334.794 618.215C333.627 617.442 332.71 616.344 332.042 614.919C331.382 613.486 331.051 611.768 331.051 609.763C331.051 607.759 331.386 606.045 332.054 604.62C332.73 603.195 333.655 602.105 334.831 601.348C336.006 600.591 337.338 600.213 338.827 600.213C339.978 600.213 340.904 600.406 341.604 600.793C342.312 601.171 342.86 601.614 343.246 602.121C343.641 602.628 343.946 603.075 344.164 603.461H344.381V594.273H347.991V619H344.466V616.114H344.164C343.946 616.509 343.632 616.96 343.222 617.467C342.819 617.974 342.264 618.416 341.556 618.795C340.847 619.173 339.93 619.362 338.803 619.362ZM339.6 616.283C340.638 616.283 341.516 616.01 342.232 615.462C342.956 614.907 343.504 614.138 343.874 613.156C344.252 612.174 344.441 611.031 344.441 609.727C344.441 608.439 344.256 607.312 343.886 606.347C343.516 605.381 342.972 604.628 342.256 604.089C341.54 603.549 340.654 603.28 339.6 603.28C338.513 603.28 337.608 603.562 336.883 604.125C336.159 604.688 335.611 605.457 335.241 606.431C334.879 607.405 334.698 608.504 334.698 609.727C334.698 610.967 334.883 612.082 335.253 613.072C335.623 614.062 336.171 614.847 336.895 615.426C337.628 615.998 338.529 616.283 339.6 616.283ZM367.041 604.982L363.769 605.562C363.632 605.143 363.414 604.745 363.117 604.366C362.827 603.988 362.432 603.678 361.933 603.437C361.434 603.195 360.811 603.075 360.062 603.075C359.04 603.075 358.186 603.304 357.502 603.763C356.818 604.214 356.476 604.797 356.476 605.513C356.476 606.133 356.705 606.632 357.164 607.011C357.623 607.389 358.364 607.699 359.386 607.94L362.332 608.616C364.038 609.011 365.31 609.619 366.147 610.44C366.984 611.261 367.403 612.327 367.403 613.639C367.403 614.75 367.081 615.74 366.437 616.609C365.801 617.471 364.912 618.147 363.769 618.638C362.634 619.129 361.318 619.374 359.82 619.374C357.744 619.374 356.049 618.932 354.737 618.046C353.425 617.153 352.62 615.885 352.323 614.243L355.812 613.712C356.029 614.621 356.476 615.309 357.152 615.776C357.828 616.235 358.71 616.464 359.796 616.464C360.98 616.464 361.925 616.219 362.634 615.728C363.342 615.229 363.696 614.621 363.696 613.905C363.696 613.325 363.479 612.838 363.044 612.444C362.618 612.049 361.962 611.752 361.076 611.55L357.937 610.862C356.206 610.468 354.927 609.84 354.097 608.979C353.276 608.117 352.866 607.027 352.866 605.707C352.866 604.612 353.172 603.654 353.784 602.833C354.395 602.012 355.24 601.372 356.319 600.913C357.398 600.446 358.633 600.213 360.026 600.213C362.03 600.213 363.608 600.648 364.759 601.517C365.91 602.378 366.67 603.533 367.041 604.982ZM375.924 594.273L375.61 611.888H372.266L371.952 594.273H375.924ZM373.944 619.229C373.276 619.229 372.704 618.996 372.229 618.529C371.754 618.054 371.521 617.483 371.529 616.815C371.521 616.155 371.754 615.591 372.229 615.124C372.704 614.649 373.276 614.412 373.944 614.412C374.596 614.412 375.159 614.649 375.634 615.124C376.109 615.591 376.351 616.155 376.359 616.815C376.351 617.257 376.234 617.664 376.009 618.034C375.791 618.396 375.501 618.686 375.139 618.903C374.777 619.121 374.379 619.229 373.944 619.229Z" fill="black"/>
<path d="M155.481 449.742C155.328 448.316 154.686 447.205 153.553 446.41C152.432 445.615 150.972 445.217 149.175 445.217C147.912 445.217 146.829 445.408 145.925 445.789C145.021 446.17 144.329 446.687 143.85 447.341C143.371 447.994 143.126 448.74 143.115 449.579C143.115 450.276 143.273 450.88 143.589 451.392C143.915 451.904 144.357 452.339 144.912 452.699C145.467 453.047 146.083 453.341 146.758 453.581C147.433 453.821 148.114 454.022 148.8 454.185L151.936 454.969C153.199 455.263 154.414 455.661 155.579 456.162C156.755 456.663 157.806 457.295 158.732 458.057C159.668 458.819 160.409 459.739 160.953 460.817C161.498 461.896 161.77 463.159 161.77 464.607C161.77 466.567 161.269 468.294 160.267 469.786C159.265 471.267 157.817 472.426 155.922 473.265C154.038 474.093 151.756 474.506 149.077 474.506C146.475 474.506 144.215 474.103 142.298 473.298C140.393 472.492 138.901 471.316 137.822 469.769C136.755 468.223 136.178 466.339 136.091 464.117H142.053C142.14 465.282 142.5 466.252 143.131 467.025C143.763 467.798 144.585 468.375 145.598 468.756C146.622 469.138 147.765 469.328 149.028 469.328C150.346 469.328 151.5 469.132 152.491 468.74C153.493 468.337 154.277 467.782 154.844 467.074C155.41 466.355 155.699 465.517 155.71 464.558C155.699 463.687 155.443 462.968 154.942 462.402C154.441 461.825 153.738 461.346 152.835 460.964C151.942 460.572 150.896 460.224 149.698 459.919L145.892 458.939C143.137 458.231 140.959 457.158 139.358 455.721C137.768 454.272 136.973 452.35 136.973 449.955C136.973 447.983 137.507 446.257 138.574 444.776C139.652 443.295 141.117 442.146 142.968 441.33C144.819 440.502 146.916 440.088 149.257 440.088C151.631 440.088 153.711 440.502 155.497 441.33C157.294 442.146 158.704 443.284 159.728 444.744C160.752 446.192 161.28 447.858 161.312 449.742H155.481ZM176.836 474.49C174.386 474.49 172.262 473.951 170.465 472.873C168.668 471.795 167.274 470.286 166.283 468.348C165.303 466.41 164.813 464.144 164.813 461.553C164.813 458.961 165.303 456.69 166.283 454.741C167.274 452.791 168.668 451.278 170.465 450.2C172.262 449.121 174.386 448.582 176.836 448.582C179.286 448.582 181.41 449.121 183.207 450.2C185.004 451.278 186.392 452.791 187.372 454.741C188.363 456.69 188.859 458.961 188.859 461.553C188.859 464.144 188.363 466.41 187.372 468.348C186.392 470.286 185.004 471.795 183.207 472.873C181.41 473.951 179.286 474.49 176.836 474.49ZM176.869 469.753C178.197 469.753 179.308 469.388 180.201 468.658C181.094 467.918 181.758 466.927 182.194 465.685C182.64 464.444 182.864 463.061 182.864 461.536C182.864 460.001 182.64 458.612 182.194 457.371C181.758 456.118 181.094 455.122 180.201 454.381C179.308 453.641 178.197 453.271 176.869 453.271C175.507 453.271 174.375 453.641 173.471 454.381C172.578 455.122 171.908 456.118 171.462 457.371C171.026 458.612 170.808 460.001 170.808 461.536C170.808 463.061 171.026 464.444 171.462 465.685C171.908 466.927 172.578 467.918 173.471 468.658C174.375 469.388 175.507 469.753 176.869 469.753ZM192.858 474V448.909H198.51V453.173H198.804C199.326 451.735 200.192 450.613 201.401 449.808C202.61 448.991 204.053 448.582 205.73 448.582C207.429 448.582 208.861 448.996 210.026 449.824C211.202 450.641 212.03 451.757 212.509 453.173H212.77C213.326 451.779 214.262 450.668 215.58 449.84C216.909 449.002 218.482 448.582 220.301 448.582C222.61 448.582 224.494 449.312 225.953 450.771C227.412 452.231 228.142 454.36 228.142 457.158V474H222.212V458.073C222.212 456.516 221.798 455.378 220.971 454.659C220.143 453.929 219.13 453.565 217.932 453.565C216.506 453.565 215.389 454.011 214.584 454.904C213.789 455.786 213.391 456.935 213.391 458.351V474H207.592V457.828C207.592 456.532 207.2 455.498 206.416 454.724C205.643 453.951 204.63 453.565 203.378 453.565C202.528 453.565 201.755 453.782 201.058 454.218C200.361 454.643 199.806 455.247 199.392 456.031C198.978 456.804 198.771 457.708 198.771 458.743V474H192.858ZM244.229 474.49C241.713 474.49 239.541 473.967 237.711 472.922C235.892 471.866 234.493 470.374 233.513 468.446C232.533 466.508 232.043 464.226 232.043 461.602C232.043 459.021 232.533 456.755 233.513 454.806C234.504 452.846 235.887 451.321 237.662 450.232C239.437 449.132 241.523 448.582 243.919 448.582C245.465 448.582 246.924 448.833 248.296 449.334C249.679 449.824 250.899 450.586 251.955 451.621C253.023 452.655 253.861 453.973 254.471 455.574C255.081 457.164 255.386 459.059 255.386 461.259V463.072H234.82V459.086H249.718C249.707 457.953 249.462 456.946 248.982 456.064C248.503 455.171 247.834 454.469 246.973 453.957C246.124 453.445 245.133 453.189 244 453.189C242.791 453.189 241.73 453.483 240.815 454.071C239.9 454.648 239.187 455.411 238.675 456.358C238.174 457.295 237.918 458.324 237.907 459.445V462.925C237.907 464.384 238.174 465.636 238.708 466.682C239.241 467.716 239.987 468.511 240.946 469.067C241.904 469.611 243.026 469.884 244.311 469.884C245.171 469.884 245.95 469.764 246.647 469.524C247.343 469.274 247.948 468.909 248.46 468.43C248.972 467.951 249.358 467.357 249.62 466.649L255.141 467.27C254.792 468.729 254.128 470.003 253.148 471.092C252.179 472.17 250.937 473.009 249.423 473.608C247.91 474.196 246.178 474.49 244.229 474.49ZM271.898 448.909V453.483H257.474V448.909H271.898ZM261.035 442.898H266.948V466.453C266.948 467.248 267.068 467.858 267.307 468.283C267.558 468.696 267.885 468.98 268.288 469.132C268.69 469.285 269.137 469.361 269.627 469.361C269.997 469.361 270.335 469.334 270.64 469.279C270.956 469.225 271.195 469.176 271.359 469.132L272.355 473.755C272.039 473.864 271.587 473.984 270.999 474.114C270.422 474.245 269.714 474.321 268.876 474.343C267.395 474.387 266.061 474.163 264.873 473.673C263.686 473.172 262.744 472.399 262.047 471.354C261.361 470.308 261.024 469.001 261.035 467.433V442.898ZM282.276 459.298V474H276.362V440.545H282.145V453.173H282.439C283.027 451.757 283.936 450.641 285.167 449.824C286.408 448.996 287.987 448.582 289.904 448.582C291.647 448.582 293.166 448.947 294.462 449.677C295.758 450.406 296.759 451.474 297.467 452.879C298.186 454.283 298.545 455.999 298.545 458.024V474H292.632V458.939C292.632 457.251 292.196 455.939 291.325 455.002C290.465 454.055 289.256 453.581 287.699 453.581C286.653 453.581 285.717 453.81 284.889 454.267C284.072 454.714 283.43 455.362 282.962 456.211C282.504 457.06 282.276 458.089 282.276 459.298ZM303.553 474V448.909H309.466V474H303.553ZM306.526 445.348C305.59 445.348 304.784 445.038 304.109 444.417C303.433 443.785 303.096 443.028 303.096 442.146C303.096 441.253 303.433 440.496 304.109 439.876C304.784 439.244 305.59 438.928 306.526 438.928C307.474 438.928 308.279 439.244 308.944 439.876C309.619 440.496 309.957 441.253 309.957 442.146C309.957 443.028 309.619 443.785 308.944 444.417C308.279 445.038 307.474 445.348 306.526 445.348ZM320.441 459.298V474H314.527V448.909H320.179V453.173H320.473C321.05 451.768 321.971 450.652 323.234 449.824C324.508 448.996 326.082 448.582 327.955 448.582C329.686 448.582 331.195 448.953 332.48 449.693C333.776 450.434 334.777 451.506 335.485 452.911C336.204 454.316 336.558 456.02 336.547 458.024V474H330.634V458.939C330.634 457.262 330.198 455.95 329.327 455.002C328.467 454.055 327.274 453.581 325.75 453.581C324.715 453.581 323.795 453.81 322.989 454.267C322.194 454.714 321.568 455.362 321.11 456.211C320.664 457.06 320.441 458.089 320.441 459.298ZM352.45 483.932C350.327 483.932 348.503 483.643 346.978 483.066C345.454 482.5 344.228 481.737 343.303 480.779C342.377 479.821 341.735 478.759 341.375 477.594L346.7 476.303C346.94 476.793 347.289 477.278 347.746 477.757C348.203 478.247 348.819 478.65 349.592 478.966C350.376 479.293 351.361 479.456 352.548 479.456C354.226 479.456 355.614 479.048 356.714 478.231C357.814 477.425 358.364 476.096 358.364 474.245V469.491H358.07C357.765 470.101 357.318 470.728 356.73 471.37C356.153 472.013 355.385 472.552 354.427 472.987C353.48 473.423 352.287 473.641 350.85 473.641C348.922 473.641 347.174 473.189 345.606 472.285C344.049 471.37 342.807 470.009 341.882 468.201C340.967 466.382 340.509 464.106 340.509 461.373C340.509 458.618 340.967 456.293 341.882 454.398C342.807 452.492 344.054 451.049 345.622 450.069C347.19 449.078 348.938 448.582 350.866 448.582C352.336 448.582 353.545 448.833 354.492 449.334C355.451 449.824 356.213 450.417 356.779 451.114C357.346 451.8 357.776 452.448 358.07 453.058H358.396V448.909H364.228V474.408C364.228 476.554 363.716 478.329 362.693 479.734C361.669 481.138 360.27 482.189 358.494 482.886C356.719 483.583 354.705 483.932 352.45 483.932ZM352.499 469.001C353.752 469.001 354.819 468.696 355.701 468.087C356.583 467.477 357.253 466.6 357.71 465.457C358.168 464.313 358.396 462.941 358.396 461.34C358.396 459.761 358.168 458.378 357.71 457.191C357.264 456.004 356.6 455.084 355.717 454.43C354.846 453.766 353.774 453.434 352.499 453.434C351.182 453.434 350.082 453.777 349.2 454.463C348.318 455.149 347.653 456.091 347.207 457.289C346.76 458.476 346.537 459.826 346.537 461.34C346.537 462.876 346.76 464.221 347.207 465.375C347.664 466.518 348.334 467.411 349.216 468.054C350.109 468.686 351.204 469.001 352.499 469.001ZM384.837 474L377.747 448.909H383.775L388.186 466.551H388.414L392.923 448.909H398.885L403.394 466.453H403.639L407.984 448.909H414.028L406.922 474H400.764L396.059 457.044H395.716L391.012 474H384.837ZM427.526 474.49C425.01 474.49 422.838 473.967 421.008 472.922C419.19 471.866 417.79 470.374 416.81 468.446C415.83 466.508 415.34 464.226 415.34 461.602C415.34 459.021 415.83 456.755 416.81 454.806C417.801 452.846 419.184 451.321 420.959 450.232C422.734 449.132 424.82 448.582 427.216 448.582C428.762 448.582 430.221 448.833 431.593 449.334C432.976 449.824 434.196 450.586 435.252 451.621C436.32 452.655 437.158 453.973 437.768 455.574C438.378 457.164 438.683 459.059 438.683 461.259V463.072H418.117V459.086H433.015C433.004 457.953 432.759 456.946 432.279 456.064C431.8 455.171 431.131 454.469 430.27 453.957C429.421 453.445 428.43 453.189 427.297 453.189C426.088 453.189 425.027 453.483 424.112 454.071C423.197 454.648 422.484 455.411 421.972 456.358C421.471 457.295 421.215 458.324 421.204 459.445V462.925C421.204 464.384 421.471 465.636 422.005 466.682C422.538 467.716 423.284 468.511 424.243 469.067C425.201 469.611 426.323 469.884 427.608 469.884C428.468 469.884 429.247 469.764 429.944 469.524C430.64 469.274 431.245 468.909 431.757 468.43C432.269 467.951 432.655 467.357 432.917 466.649L438.438 467.27C438.089 468.729 437.425 470.003 436.445 471.092C435.476 472.17 434.234 473.009 432.721 473.608C431.207 474.196 429.475 474.49 427.526 474.49ZM448.579 459.298V474H442.666V448.909H448.318V453.173H448.612C449.189 451.768 450.109 450.652 451.372 449.824C452.646 448.996 454.22 448.582 456.093 448.582C457.825 448.582 459.333 448.953 460.618 449.693C461.914 450.434 462.916 451.506 463.624 452.911C464.342 454.316 464.696 456.02 464.685 458.024V474H458.772V458.939C458.772 457.262 458.336 455.95 457.465 455.002C456.605 454.055 455.412 453.581 453.888 453.581C452.853 453.581 451.933 453.81 451.127 454.267C450.332 454.714 449.706 455.362 449.249 456.211C448.802 457.06 448.579 458.089 448.579 459.298ZM482.206 448.909V453.483H467.782V448.909H482.206ZM471.343 442.898H477.256V466.453C477.256 467.248 477.376 467.858 477.616 468.283C477.866 468.696 478.193 468.98 478.596 469.132C478.999 469.285 479.445 469.361 479.935 469.361C480.306 469.361 480.643 469.334 480.948 469.279C481.264 469.225 481.503 469.176 481.667 469.132L482.663 473.755C482.347 473.864 481.896 473.984 481.307 474.114C480.73 474.245 480.022 474.321 479.184 474.343C477.703 474.387 476.369 474.163 475.182 473.673C473.995 473.172 473.053 472.399 472.356 471.354C471.67 470.308 471.332 469.001 471.343 467.433V442.898ZM501.7 474L494.61 448.909H500.638L505.049 466.551H505.277L509.786 448.909H515.748L520.257 466.453H520.502L524.847 448.909H530.891L523.785 474H517.627L512.922 457.044H512.579L507.875 474H501.7ZM534 474V448.909H539.733V453.091H539.995C540.452 451.643 541.236 450.526 542.347 449.742C543.469 448.947 544.748 448.55 546.186 448.55C546.512 448.55 546.877 448.566 547.28 448.599C547.694 448.621 548.037 448.659 548.309 448.713V454.153C548.059 454.066 547.661 453.989 547.117 453.924C546.583 453.848 546.066 453.81 545.565 453.81C544.487 453.81 543.518 454.044 542.657 454.512C541.808 454.969 541.138 455.607 540.648 456.423C540.158 457.24 539.913 458.182 539.913 459.249V474H534ZM561.129 474.49C558.679 474.49 556.555 473.951 554.759 472.873C552.962 471.795 551.568 470.286 550.577 468.348C549.597 466.41 549.107 464.144 549.107 461.553C549.107 458.961 549.597 456.69 550.577 454.741C551.568 452.791 552.962 451.278 554.759 450.2C556.555 449.121 558.679 448.582 561.129 448.582C563.58 448.582 565.703 449.121 567.5 450.2C569.297 451.278 570.685 452.791 571.666 454.741C572.657 456.69 573.152 458.961 573.152 461.553C573.152 464.144 572.657 466.41 571.666 468.348C570.685 470.286 569.297 471.795 567.5 472.873C565.703 473.951 563.58 474.49 561.129 474.49ZM561.162 469.753C562.491 469.753 563.601 469.388 564.494 468.658C565.387 467.918 566.052 466.927 566.487 465.685C566.934 464.444 567.157 463.061 567.157 461.536C567.157 460.001 566.934 458.612 566.487 457.371C566.052 456.118 565.387 455.122 564.494 454.381C563.601 453.641 562.491 453.271 561.162 453.271C559.801 453.271 558.668 453.641 557.764 454.381C556.871 455.122 556.201 456.118 555.755 457.371C555.319 458.612 555.102 460.001 555.102 461.536C555.102 463.061 555.319 464.444 555.755 465.685C556.201 466.927 556.871 467.918 557.764 468.658C558.668 469.388 559.801 469.753 561.162 469.753ZM583.064 459.298V474H577.151V448.909H582.803V453.173H583.097C583.674 451.768 584.594 450.652 585.858 449.824C587.132 448.996 588.705 448.582 590.579 448.582C592.31 448.582 593.818 448.953 595.103 449.693C596.399 450.434 597.401 451.506 598.109 452.911C598.828 454.316 599.182 456.02 599.171 458.024V474H593.258V458.939C593.258 457.262 592.822 455.95 591.951 455.002C591.09 454.055 589.898 453.581 588.373 453.581C587.339 453.581 586.419 453.81 585.613 454.267C584.818 454.714 584.192 455.362 583.734 456.211C583.288 457.06 583.064 458.089 583.064 459.298ZM615.074 483.932C612.951 483.932 611.127 483.643 609.602 483.066C608.077 482.5 606.852 481.737 605.926 480.779C605.001 479.821 604.358 478.759 603.999 477.594L609.324 476.303C609.564 476.793 609.912 477.278 610.37 477.757C610.827 478.247 611.442 478.65 612.216 478.966C613 479.293 613.985 479.456 615.172 479.456C616.849 479.456 618.238 479.048 619.338 478.231C620.438 477.425 620.988 476.096 620.988 474.245V469.491H620.694C620.389 470.101 619.942 470.728 619.354 471.37C618.777 472.013 618.009 472.552 617.051 472.987C616.103 473.423 614.911 473.641 613.473 473.641C611.546 473.641 609.798 473.189 608.23 472.285C606.672 471.37 605.431 470.009 604.505 468.201C603.591 466.382 603.133 464.106 603.133 461.373C603.133 458.618 603.591 456.293 604.505 454.398C605.431 452.492 606.678 451.049 608.246 450.069C609.814 449.078 611.562 448.582 613.49 448.582C614.96 448.582 616.169 448.833 617.116 449.334C618.074 449.824 618.837 450.417 619.403 451.114C619.969 451.8 620.399 452.448 620.694 453.058H621.02V448.909H626.852V474.408C626.852 476.554 626.34 478.329 625.316 479.734C624.293 481.138 622.893 482.189 621.118 482.886C619.343 483.583 617.328 483.932 615.074 483.932ZM615.123 469.001C616.376 469.001 617.443 468.696 618.325 468.087C619.207 467.477 619.877 466.6 620.334 465.457C620.792 464.313 621.02 462.941 621.02 461.34C621.02 459.761 620.792 458.378 620.334 457.191C619.888 456.004 619.223 455.084 618.341 454.43C617.47 453.766 616.397 453.434 615.123 453.434C613.805 453.434 612.706 453.777 611.823 454.463C610.941 455.149 610.277 456.091 609.831 457.289C609.384 458.476 609.161 459.826 609.161 461.34C609.161 462.876 609.384 464.221 609.831 465.375C610.288 466.518 610.958 467.411 611.84 468.054C612.733 468.686 613.827 469.001 615.123 469.001ZM635.535 474.359C634.544 474.359 633.695 474.011 632.987 473.314C632.279 472.617 631.93 471.768 631.941 470.766C631.93 469.786 632.279 468.947 632.987 468.25C633.695 467.553 634.544 467.205 635.535 467.205C636.493 467.205 637.326 467.553 638.034 468.25C638.753 468.947 639.118 469.786 639.129 470.766C639.118 471.43 638.944 472.034 638.606 472.579C638.279 473.123 637.844 473.559 637.299 473.886C636.766 474.201 636.178 474.359 635.535 474.359Z" fill="black"/>
<g clip-path="url(#clip2_984_97)">
<g clip-path="url(#clip3_984_97)">
<path d="M265.55 249H134.45C132.545 249 131 250.545 131 252.45V383.55C131 385.455 132.545 387 134.45 387H265.55C267.455 387 269 385.455 269 383.55V252.45C269 250.545 267.455 249 265.55 249Z" fill="#FF7D6B"/>
<g filter="url(#filter6_f_984_97)">
<path d="M216.273 392.274L257.4 415.857L306.983 414.126L301.427 255.005L214.533 258.04L199.421 289.715L244.249 348.913L216.273 392.274Z" fill="#FF7D6B"/>
</g>
</g>
<path d="M193.25 311.25L206.75 324.75M206.75 311.25L193.25 324.75M227 318C227 332.912 214.912 345 200 345C185.088 345 173 332.912 173 318C173 303.088 185.088 291 200 291C214.912 291 227 303.088 227 318Z" stroke="white" stroke-width="4.5" stroke-linecap="round" stroke-linejoin="round"/>
</g>
</g>
<defs>
<filter id="filter0_f_984_97" x="812.383" y="340.341" width="1136" height="1136" filterUnits="userSpaceOnUse" color-interpolation-filters="sRGB">
<feFlood flood-opacity="0" result="BackgroundImageFix"/>
<feBlend mode="normal" in="SourceGraphic" in2="BackgroundImageFix" result="shape"/>
<feGaussianBlur stdDeviation="162" result="effect1_foregroundBlur_984_97"/>
</filter>
<filter id="filter1_f_984_97" x="264.383" y="420.341" width="1016" height="1018" filterUnits="userSpaceOnUse" color-interpolation-filters="sRGB">
<feFlood flood-opacity="0" result="BackgroundImageFix"/>
<feBlend mode="normal" in="SourceGraphic" in2="BackgroundImageFix" result="shape"/>
<feGaussianBlur stdDeviation="162" result="effect1_foregroundBlur_984_97"/>
</filter>
<filter id="filter2_f_984_97" x="739.679" y="-208.221" width="998.295" height="1426.39" filterUnits="userSpaceOnUse" color-interpolation-filters="sRGB">
<feFlood flood-opacity="0" result="BackgroundImageFix"/>
<feBlend mode="normal" in="SourceGraphic" in2="BackgroundImageFix" result="shape"/>
<feGaussianBlur stdDeviation="162" result="effect1_foregroundBlur_984_97"/>
</filter>
<filter id="filter3_f_984_97" x="-537.617" y="340.341" width="1136" height="1136" filterUnits="userSpaceOnUse" color-interpolation-filters="sRGB">
<feFlood flood-opacity="0" result="BackgroundImageFix"/>
<feBlend mode="normal" in="SourceGraphic" in2="BackgroundImageFix" result="shape"/>
<feGaussianBlur stdDeviation="162" result="effect1_foregroundBlur_984_97"/>
</filter>
<filter id="filter4_f_984_97" x="-541.541" y="-28.0647" width="912.525" height="1235.8" filterUnits="userSpaceOnUse" color-interpolation-filters="sRGB">
<feFlood flood-opacity="0" result="BackgroundImageFix"/>
<feBlend mode="normal" in="SourceGraphic" in2="BackgroundImageFix" result="shape"/>
<feGaussianBlur stdDeviation="162" result="effect1_foregroundBlur_984_97"/>
</filter>
<filter id="filter5_f_984_97" x="238.111" y="-614.739" width="1615.47" height="1438.77" filterUnits="userSpaceOnUse" color-interpolation-filters="sRGB">
<feFlood flood-opacity="0" result="BackgroundImageFix"/>
<feBlend mode="normal" in="SourceGraphic" in2="BackgroundImageFix" result="shape"/>
<feGaussianBlur stdDeviation="162" result="effect1_foregroundBlur_984_97"/>
</filter>
<filter id="filter6_f_984_97" x="112.061" y="167.645" width="282.283" height="335.572" filterUnits="userSpaceOnUse" color-interpolation-filters="sRGB">
<feFlood flood-opacity="0" result="BackgroundImageFix"/>
<feBlend mode="normal" in="SourceGraphic" in2="BackgroundImageFix" result="shape"/>
<feGaussianBlur stdDeviation="43.68" result="effect1_foregroundBlur_984_97"/>
</filter>
<linearGradient id="paint0_linear_984_97" x1="793.695" y1="-401.587" x2="1287.57" y2="266.013" gradientUnits="userSpaceOnUse">
<stop stop-color="#FE8872"/>
<stop offset="1" stop-color="#FFC6C1"/>
</linearGradient>
<clipPath id="clip0_984_97">
<rect width="1600" height="836" rx="20" fill="white"/>
</clipPath>
<clipPath id="clip1_984_97">
<rect width="914" height="1600" fill="white" transform="matrix(-4.37114e-08 -1 -1 4.37114e-08 1600 914)"/>
</clipPath>
<clipPath id="clip2_984_97">
<rect x="131" y="249" width="138" height="138" rx="69" fill="white"/>
</clipPath>
<clipPath id="clip3_984_97">
<rect width="138" height="138" fill="white" transform="translate(131 249)"/>
</clipPath>
</defs>
</svg>
